HIERARCHY
ROOT Hips
{
	OFFSET 48.609600 -41.751415 101.031990
	CHANNELS 6 Xposition Yposition Zposition Xrotation Yrotation Zrotation
	JOINT spine
	{
		OFFSET 0.000000 -0.507027 8.817039
		CHANNELS 3 Xrotation Yrotation Zrotation
		JOINT spine1
		{
			OFFSET 0.000000 0.000000 10.776604
			CHANNELS 3 Xrotation Yrotation Zrotation
			JOINT spine2
			{
				OFFSET 0.000000 -0.000004 10.325905
				CHANNELS 3 Xrotation Yrotation Zrotation
				JOINT Neck
				{
					OFFSET 0.000000 -1.263954 26.511002
					CHANNELS 3 Xrotation Yrotation Zrotation
					JOINT Head
					{
						OFFSET 0.000000 0.000000 8.009659
						CHANNELS 3 Xrotation Yrotation Zrotation
						End Site
						{
							OFFSET 0.000000 6.393856 19.387894
						}
					}
				}
				JOINT RightShoulder
				{
					OFFSET -4.347950 0.605423 11.151199
					CHANNELS 3 Xrotation Yrotation Zrotation
					JOINT RightArm
					{
						OFFSET 0.000000 -0.000004 14.625793
						CHANNELS 3 Xrotation Yrotation Zrotation
						JOINT RightArmRoll
						{
							OFFSET 0.000000 0.000000 7.383408
							CHANNELS 3 Xrotation Yrotation Zrotation
							JOINT RightForeArm
							{
								OFFSET 0.000000 -0.000004 21.505203
								CHANNELS 3 Xrotation Yrotation Zrotation
								JOINT RightForeArmRoll
								{
									OFFSET 0.000000 0.000000 8.285324
									CHANNELS 3 Xrotation Yrotation Zrotation
									JOINT RightHand
									{
										OFFSET 0.000000 -0.000004 16.626801
										CHANNELS 3 Xrotation Yrotation Zrotation
										End Site
										{
											OFFSET 0.000000 0.000000 0.100006
										}
									}
								}
							}
						}
					}
				}
				JOINT LeftShoulder
				{
					OFFSET 4.347950 0.605423 11.151199
					CHANNELS 3 Xrotation Yrotation Zrotation
					JOINT LeftArm
					{
						OFFSET 0.000000 -0.000004 14.625793
						CHANNELS 3 Xrotation Yrotation Zrotation
						JOINT LeftArmRoll
						{
							OFFSET 0.000000 0.000000 7.383408
							CHANNELS 3 Xrotation Yrotation Zrotation
							JOINT LeftForeArm
							{
								OFFSET 0.000000 -0.000004 21.505203
								CHANNELS 3 Xrotation Yrotation Zrotation
								JOINT LeftForeArmRoll
								{
									OFFSET 0.000000 0.000000 8.285324
									CHANNELS 3 Xrotation Yrotation Zrotation
									JOINT LeftHand
									{
										OFFSET 0.000000 -0.000004 16.626801
										CHANNELS 3 Xrotation Yrotation Zrotation
										End Site
										{
											OFFSET 0.000000 0.000000 0.100006
										}
									}
								}
							}
						}
					}
				}
			}
		}
	}
	JOINT RightUpLeg
	{
		OFFSET -7.815102 1.202171 -1.433090
		CHANNELS 3 Xrotation Yrotation Zrotation
		JOINT RightUpLegRoll
		{
			OFFSET 0.000000 -0.000004 19.495895
			CHANNELS 3 Xrotation Yrotation Zrotation
			JOINT RightLeg
			{
				OFFSET 0.000000 0.000004 -24.142700
				CHANNELS 3 Xrotation Yrotation Zrotation
				JOINT RightLegRoll
				{
					OFFSET 0.000000 -0.000004 24.221703
					CHANNELS 3 Xrotation Yrotation Zrotation
					JOINT RightFoot
					{
						OFFSET 0.000000 -0.000004 20.160507
						CHANNELS 3 Xrotation Yrotation Zrotation
						JOINT RightToeBase
						{
							OFFSET 0.000000 -0.000004 16.853195
							CHANNELS 3 Xrotation Yrotation Zrotation
							End Site
							{
								OFFSET 0.007145 0.940781 8.161865
							}
						}
					}
				}
			}
		}
	}
	JOINT LeftUpLeg
	{
		OFFSET 7.815102 1.202171 -1.433090
		CHANNELS 3 Xrotation Yrotation Zrotation
		JOINT LeftUpLegRoll
		{
			OFFSET 0.000000 -0.000004 19.496002
			CHANNELS 3 Xrotation Yrotation Zrotation
			JOINT LeftLeg
			{
				OFFSET 0.000000 -0.000004 24.142601
				CHANNELS 3 Xrotation Yrotation Zrotation
				JOINT LeftLegRoll
				{
					OFFSET 0.000000 -0.000004 24.445602
					CHANNELS 3 Xrotation Yrotation Zrotation
					JOINT LeftFoot
					{
						OFFSET 0.000000 -0.000004 19.936600
						CHANNELS 3 Xrotation Yrotation Zrotation
						JOINT LeftToeBase
						{
							OFFSET 0.000000 -0.000004 16.853195
							CHANNELS 3 Xrotation Yrotation Zrotation
							End Site
							{
								OFFSET -0.032013 0.940781 8.161865
							}
						}
					}
				}
			}
		}
	}
}
MOTION
Frames: 9
Frame Time: 0.041667
50.417599 -9.425152 51.543488 -14.896137 -0.562863 -2.021593 -0.927839 -0.643118 -2.450405 2.096651 -1.264111 -4.926295 3.739377 -1.322908 -4.910845 62.570489 36.397426 -9.151107 -40.507417 -20.159373 1.811247 52.404790 -59.456605 58.100594 -68.770566 -112.192599 -61.260213 -0.000002 -0.000000 0.000000 38.422191 -13.448724 3.119292 0.000004 0.000011 -2.999989 -4.999753 -7.998696 0.000040 85.846298 98.167324 -79.998092 55.297963 65.288692 -53.634518 -0.000003 0.000029 -0.000008 46.655800 13.449400 -4.365333 -0.000007 -0.000003 3.007562 -4.999996 7.998686 -0.000097 -83.206116 -173.607631 3.140222 -179.999991 0.000005 -1.461000 82.686461 2.344528 1.060955 -0.000003 0.000000 1.791441 68.172746 8.066168 -0.793436 25.458424 -7.354655 0.011177 -81.297249 167.007496 -6.902258 -0.000005 -0.000004 -1.775880 -104.099214 -3.397413 -2.287263 -0.000006 -0.000005 -2.408130 73.090667 -8.096332 1.654481 25.457032 7.360290 -0.005286 
50.408901 -9.507584 51.490295 -14.899434 -0.561427 -2.021856 -0.926805 -0.643351 -2.449627 2.100232 -1.265028 -4.923712 3.742971 -1.323800 -4.908251 62.566281 36.393533 -9.143896 -40.477159 -20.151039 1.823088 52.402219 -59.460130 58.096797 -68.797360 -112.191069 -61.297253 0.000000 0.000000 -0.000001 38.426549 -13.452963 3.122125 0.000005 0.000011 -2.999990 -4.999755 -7.998698 0.000039 85.878769 98.167932 -80.030713 55.323928 65.287155 -53.654865 -0.000001 0.000028 -0.000007 46.651418 13.449655 -4.365375 -0.000009 -0.000004 3.007562 -4.999998 7.998683 -0.000097 -83.192517 -173.625813 3.162104 -179.999991 0.000006 -1.461997 82.679201 2.340190 1.060725 -0.000003 -0.000000 1.794282 68.123439 8.076823 -0.813960 25.458425 -7.354650 0.011177 -81.299079 167.008698 -6.897864 -0.000005 -0.000004 -1.775881 -104.102212 -3.399146 -2.287555 -0.000006 -0.000004 -2.408179 73.088010 -8.094939 1.650595 25.457027 7.360290 -0.005286 
50.410900 -9.470760 51.509285 -14.902827 -0.560202 -2.022385 -0.925825 -0.643521 -2.448859 2.103754 -1.265824 -4.921125 3.746482 -1.324575 -4.905663 62.561746 36.390469 -9.136547 -40.446031 -20.143094 1.835393 52.400989 -59.463859 58.094324 -68.825159 -112.189491 -61.335297 0.000000 0.000000 -0.000000 38.430739 -13.457395 3.125037 0.000003 0.000008 -2.999991 -4.999757 -7.998700 0.000038 85.911260 98.168677 -80.063307 55.349568 65.285639 -53.675489 -0.000001 0.000027 -0.000007 46.646859 13.449652 -4.365266 -0.000007 -0.000004 3.007562 -4.999997 7.998686 -0.000098 -83.178488 -173.644664 3.185758 -179.999991 0.000007 -1.464005 82.671749 2.335565 1.060582 -0.000003 0.000000 1.797251 68.072643 8.088132 -0.835639 25.458419 -7.354654 0.011177 -81.300978 167.009491 -6.893183 -0.000004 -0.000004 -1.775880 -104.105443 -3.400678 -2.287855 -0.000005 -0.000004 -2.408260 73.085490 -8.093584 1.646815 25.457037 7.360291 -0.005286 
50.408600 -9.496990 51.485798 -14.906225 -0.559128 -2.023095 -0.924891 -0.643648 -2.448091 2.107222 -1.266541 -4.918543 3.749954 -1.325268 -4.903056 62.557006 36.387928 -9.129091 -40.414359 -20.135533 1.847992 52.400405 -59.467759 58.092460 -68.853785 -112.187688 -61.374208 -0.000001 0.000000 -0.000001 38.434936 -13.461909 3.127995 0.000005 0.000011 -2.999990 -4.999752 -7.998696 0.000038 85.942419 98.169544 -80.094534 55.375195 65.284116 -53.696533 -0.000002 0.000028 -0.000007 46.642078 13.449565 -4.365068 -0.000007 -0.000003 3.007562 -4.999998 7.998684 -0.000099 -83.164172 -173.663898 3.210300 -179.999991 0.000006 -1.466000 82.664133 2.330754 1.060230 -0.000003 0.000001 1.800309 68.020939 8.099848 -0.858262 25.458420 -7.354654 0.011178 -81.302754 167.010119 -6.888924 -0.000005 -0.000003 -1.775879 -104.108783 -3.402238 -2.287151 -0.000004 -0.000006 -2.408359 73.083058 -8.092192 1.642947 25.457035 7.360291 -0.005286 
50.404202 -9.477764 51.483780 -14.909622 -0.558140 -2.023908 -0.923986 -0.643750 -2.447332 2.110659 -1.267208 -4.915943 3.753397 -1.325911 -4.900465 62.552150 36.385702 -9.121607 -40.382418 -20.128105 1.860710 52.400494 -59.471823 58.091285 -68.882868 -112.185816 -61.413571 -0.000000 -0.000000 0.000000 38.439144 -13.466417 3.130953 0.000004 0.000009 -2.999991 -4.999753 -7.998694 0.000039 85.973640 98.170480 -80.125803 55.400846 65.282716 -53.717857 -0.000002 0.000029 -0.000008 46.637266 13.449404 -4.364879 -0.000008 -0.000004 3.007562 -4.999995 7.998686 -0.000095 -83.149883 -173.683364 3.234539 -179.999991 0.000005 -1.467995 82.656497 2.325817 1.059971 -0.000003 0.000001 1.803430 67.968599 8.111919 -0.881454 25.458422 -7.354652 0.011176 -81.304475 167.010679 -6.884985 -0.000006 -0.000004 -1.775881 -104.112218 -3.403823 -2.286440 -0.000005 -0.000005 -2.408470 73.080750 -8.090813 1.639289 25.457032 7.360293 -0.005286 
50.405102 -9.480625 51.479183 -14.913023 -0.557172 -2.024745 -0.923076 -0.643845 -2.446574 2.114089 -1.267865 -4.913351 3.756840 -1.326544 -4.897862 62.547218 36.383554 -9.114080 -40.350470 -20.120670 1.873423 52.400586 -59.475894 58.090096 -68.911951 -112.183945 -61.452947 -0.000001 0.000000 -0.000000 38.443259 -13.471023 3.133953 0.000005 0.000008 -2.999990 -4.999752 -7.998694 0.000039 86.004820 98.171429 -80.157017 55.426476 65.281186 -53.739187 -0.000001 0.000029 -0.000007 46.632447 13.449172 -4.364625 -0.000009 -0.000003 3.007562 -4.999998 7.998687 -0.000097 -83.135457 -173.702912 3.259256 -179.999991 0.000005 -1.470002 82.648841 2.320858 1.059607 -0.000003 0.000000 1.806559 67.916068 8.124063 -0.904708 25.458420 -7.354652 0.011176 -81.306135 167.011144 -6.881160 -0.000005 -0.000005 -1.775881 -104.115551 -3.405380 -2.285737 -0.000005 -0.000005 -2.408579 73.078421 -8.089404 1.635529 25.457037 7.360290 -0.005288 
50.400700 -9.480602 51.474701 -14.916421 -0.556162 -2.025532 -0.922162 -0.643953 -2.445805 2.117541 -1.268541 -4.910758 3.760280 -1.327197 -4.895261 62.542376 36.381201 -9.106637 -40.318528 -20.113212 1.886120 52.400419 -59.479835 58.088628 -68.940917 -112.182210 -61.492179 0.000002 0.000000 -0.000001 38.447463 -13.475530 3.136913 0.000004 0.000011 -2.999990 -4.999754 -7.998697 0.000039 86.036690 98.172344 -80.188941 55.452120 65.279779 -53.760463 0.000000 0.000027 -0.000007 46.627642 13.449015 -4.364407 -0.000008 -0.000003 3.007562 -4.999999 7.998685 -0.000099 -83.121141 -173.722296 3.283670 -179.999991 0.000006 -1.471996 82.641123 2.315977 1.059350 -0.000003 0.000000 1.809661 67.863844 8.136149 -0.927683 25.458422 -7.354654 0.011177 -81.308088 167.011540 -6.876102 -0.000005 -0.000005 -1.775881 -104.118885 -3.406940 -2.285032 -0.000005 -0.000005 -2.408689 73.076010 -8.088064 1.631756 25.457037 7.360290 -0.005285 
50.400398 -9.465611 51.480480 -14.919817 -0.555044 -2.026189 -0.921213 -0.644091 -2.445036 2.121020 -1.269278 -4.908176 3.763774 -1.327910 -4.892662 62.537649 36.378540 -9.099112 -40.287082 -20.105522 1.898502 52.399852 -59.483742 58.086811 -68.969317 -112.180461 -61.530872 -0.000001 -0.000000 0.000000 38.451653 -13.479959 3.139820 0.000003 0.000012 -2.999990 -4.999753 -7.998694 0.000040 86.067842 98.173184 -80.220169 55.477740 65.278235 -53.781374 -0.000002 0.000028 -0.000006 46.622851 13.448922 -4.364180 -0.000006 -0.000004 3.007562 -4.999995 7.998685 -0.000100 -83.107003 -173.741407 3.307397 -179.999991 0.000005 -1.474004 82.633643 2.311192 1.058991 -0.000003 0.000000 1.812701 67.812386 8.147984 -0.949952 25.458422 -7.354656 0.011178 -81.309857 167.012195 -6.871759 -0.000004 -0.000004 -1.775880 -104.122225 -3.408501 -2.284317 -0.000005 -0.000005 -2.408780 73.073585 -8.086672 1.627988 25.457034 7.360292 -0.005286 
50.408001 -9.499088 51.476688 -14.923212 -0.553756 -2.026631 -0.920222 -0.644281 -2.444268 2.124562 -1.270115 -4.905586 3.767302 -1.328724 -4.890067 62.533305 36.375200 -9.091908 -40.256274 -20.097396 1.910627 52.398066 -59.487355 58.083765 -68.996802 -112.178849 -61.568630 -0.000000 -0.000001 -0.000001 38.455939 -13.484369 3.142750 0.000002 0.000010 -2.999990 -4.999752 -7.998698 0.000040 86.100279 98.173915 -80.252728 55.503654 65.276657 -53.802097 -0.000001 0.000029 -0.000007 46.618432 13.449034 -4.364193 -0.000011 -0.000002 3.007561 -4.999996 7.998683 -0.000100 -83.093179 -173.760122 3.330618 -179.999991 0.000005 -1.475999 82.626164 2.306671 1.058953 -0.000003 -0.000000 1.815631 67.762068 8.159394 -0.971277 25.458427 -7.354652 0.011177 -81.311585 167.013234 -6.867780 -0.000005 -0.000004 -1.775879 -104.125401 -3.410278 -2.283650 -0.000006 -0.000005 -2.408850 73.071044 -8.085288 1.624213 25.457034 7.360292 -0.005287 
